<svg xmlns="http://www.w3.org/2000/svg" width="135" height="40" viewBox="0 0 135 40">
  <path fill="#A6A6A6" d="M130.197 40H4.73C2.12 40 0 37.872 0 35.267V4.727C0 2.12 2.122 0 4.73 0h125.467C132.803 0 135 2.12 135 4.726v30.54c0 2.606-2.197 4.734-4.803 4.734z"/>
  <path d="M134.032 35.268c0 2.116-1.714 3.83-3.834 3.83H4.728c-2.118 0-3.838-1.714-3.838-3.83V4.725C.89 2.61 2.61.89 4.73.89h125.467c2.12 0 3.834 1.72 3.834 3.835l.01 30.543z"/>
  <path d="M30.13 19.783c-.03-3.223 2.638-4.79 2.76-4.864-1.51-2.21-3.853-2.51-4.676-2.53-1.967-.21-3.875 1.17-4.877 1.17-1.022 0-2.565-1.16-4.228-1.13-2.14.03-4.15 1.27-5.24 3.19-2.27 3.92-.58 9.69 1.59 12.86 1.08 1.55 2.35 3.282 4.01 3.22 1.62-.064 2.23-1.033 4.19-1.033 1.94 0 2.51 1.034 4.2.995 1.74-.028 2.84-1.56 3.89-3.128C33 26.757 33.51 25 33.53 24.91c-.048-.01-3.39-1.29-3.42-5.15zm-3.2-9.477c.873-1.093 1.47-2.58 1.305-4.09-1.265.057-2.847.876-3.758 1.945-.806.95-1.526 2.49-1.34 3.94 1.42.11 2.88-.71 3.792-1.79zm26.75 21.196h-2.27l-1.244-3.908h-4.324l-1.185 3.908h-2.21l4.283-13.307h2.646l4.305 13.307zm-3.888-5.548l-1.125-3.475c-.12-.36-.342-1.2-.67-2.51h-.04c-.132.56-.343 1.4-.633 2.51l-1.104 3.47h3.57zm14.906.632c0 1.633-.44 2.922-1.323 3.87-.79.843-1.77 1.263-2.942 1.263-1.264 0-2.172-.46-2.725-1.37h-.04v5.05h-2.132V25.06c0-1.028-.027-2.08-.08-3.16h1.876l.12 1.52h.04c.71-1.146 1.79-1.72 3.237-1.72 1.13 0 2.07.446 2.83 1.34s1.13 2.08 1.13 3.54zm-2.172.08c0-.936-.21-1.705-.632-2.31-.46-.634-1.08-.95-1.856-.95-.526 0-1.004.176-1.43.524-.43.35-.71.806-.84 1.372-.066.264-.1.48-.1.65v1.6c0 .7.215 1.287.643 1.768s.99.72 1.67.72c.81 0 1.43-.308 1.88-.927s.67-1.434.67-2.448zm13.21-.08c0 1.633-.44 2.922-1.324 3.87-.79.843-1.77 1.263-2.94 1.263-1.265 0-2.173-.46-2.726-1.37h-.04v5.05h-2.13V25.06c0-1.028-.028-2.08-.08-3.16h1.875l.12 1.52h.04c.71-1.146 1.79-1.72 3.24-1.72 1.13 0 2.08.446 2.84 1.34.76.9 1.14 2.08 1.14 3.54zm-2.172.08c0-.936-.21-1.705-.633-2.31-.46-.634-1.07-.95-1.85-.95-.52 0-1 .176-1.43.524s-.71.806-.84 1.372c-.06.264-.1.48-.1.65v1.6c0 .7.22 1.287.64 1.768.43.48.99.72 1.67.72.81 0 1.43-.308 1.88-.927s.67-1.434.67-2.448zm14.512 1.104c0 1.132-.395 2.054-1.182 2.765-.867.777-2.076 1.164-3.625 1.164-1.44 0-2.59-.28-3.45-.83l.49-1.78c.93.56 1.96.85 3.08.85.8 0 1.43-.18 1.87-.55.44-.36.67-.85.67-1.46 0-.54-.19-1-.56-1.37-.37-.37-.98-.71-1.84-1.03-2.33-.87-3.5-2.147-3.5-3.82 0-1.094.407-1.99 1.224-2.69S83.184 18 84.54 18c1.212 0 2.22.21 3.022.63l-.533 1.74c-.75-.41-1.6-.613-2.55-.613-.75 0-1.34.185-1.76.553-.36.33-.54.73-.54 1.204 0 .527.2.96.61 1.303.35.316 1 .658 1.93 1.027 1.14.46 1.99 1 2.52 1.62.542.616.81 1.386.81 2.307zm7.047-4.264h-2.35v4.66c0 1.184.416 1.777 1.244 1.777.383 0 .697-.033.95-.1l.058 1.62c-.422.157-.975.235-1.658.235-.844 0-1.502-.256-1.975-.77-.475-.514-.71-1.375-.71-2.586v-4.838H89.28v-1.6h1.4v-1.757l2.092-.632v2.39h2.35v1.6zm10.604 3.12c0 1.474-.422 2.685-1.264 3.632-.88.975-2.053 1.46-3.514 1.46-1.41 0-2.54-.466-3.37-1.4-.84-.935-1.26-2.112-1.26-3.534 0-1.486.43-2.705 1.29-3.652.86-.947 2.02-1.422 3.48-1.422 1.41 0 2.54.468 3.39 1.402.813.908 1.222 2.08 1.222 3.513zm-2.21.07c0-.886-.192-1.646-.573-2.278-.447-.766-1.086-1.148-1.916-1.148-.855 0-1.508.383-1.955 1.148-.38.633-.572 1.405-.572 2.316 0 .885.2 1.645.58 2.277.46.77 1.11 1.15 1.94 1.15.82 0 1.46-.39 1.92-1.17.4-.64.59-1.41.59-2.29zm9.14-2.914c-.21-.04-.435-.06-.67-.06-.753 0-1.33.283-1.74.85-.354.5-.532 1.133-.532 1.896v5.034h-2.133l.02-6.574c0-1.105-.025-2.113-.078-3.02h1.855l.08 1.835h.05c.22-.63.58-1.138 1.06-1.52.47-.342.98-.514 1.54-.514.19 0 .37.01.53.03v2.03zm9.536 2.468c0 .383-.027.705-.08.968h-6.396c.025.948.336 1.673.928 2.173.54.45 1.238.67 2.094.67.94 0 1.8-.15 2.58-.45l.33 1.48c-.91.4-1.98.59-3.22.59-1.49 0-2.66-.43-3.51-1.31-.85-.87-1.28-2.05-1.28-3.52 0-1.45.395-2.65 1.184-3.61.83-1.02 1.947-1.54 3.355-1.54 1.38 0 2.43.52 3.14 1.54.564.82.847 1.83.847 3.02zm-2.033-.553c.012-.63-.127-1.178-.416-1.64-.367-.59-.934-.888-1.697-.888-.697 0-1.264.29-1.697.86-.355.46-.566 1.01-.633 1.66h4.443zM47.427 13.432h-3.715V6.894h1.048v5.655h2.667v.88zm4.938 0h-.94l-.078-.543h-.03c-.322.43-.78.65-1.376.65-.44 0-.8-.15-1.07-.43-.24-.26-.37-.58-.37-.96 0-.58.24-1.02.73-1.32.48-.31 1.16-.45 2.03-.45v-.08c0-.62-.32-.93-.97-.93-.46 0-.87.11-1.23.34l-.21-.69c.44-.27.98-.41 1.62-.41 1.238 0 1.85.65 1.85 1.95v1.74c0 .47.028.85.07 1.12zm-1.087-1.62v-.727c-1.157-.02-1.735.297-1.735.95 0 .246.067.43.202.553.135.123.306.184.51.184.232 0 .446-.073.643-.218s.317-.33.362-.558c.012-.052.018-.113.018-.184zm7.042 1.62h-.93l-.05-.757h-.03c-.296.576-.8.864-1.512.864-.57 0-1.04-.23-1.416-.67s-.562-1.03-.562-1.74c0-.77.203-1.38.61-1.86.395-.44.88-.66 1.455-.66.634 0 1.077.21 1.33.64h.02v-2.7h1.047v5.6c0 .46.012.88.038 1.27zm-1.086-1.99v-.785c0-.136-.01-.246-.03-.33-.058-.252-.185-.464-.38-.635-.194-.17-.428-.257-.7-.257-.39 0-.696.155-.92.466-.225.32-.337.71-.337 1.2 0 .47.107.85.322 1.14.22.31.53.47.91.47.34 0 .62-.13.83-.39.2-.24.3-.52.3-.86zm6.79-.59c0 .188-.013.346-.04.475h-3.14c.012.466.163.82.454 1.067.266.22.608.33 1.028.33.466 0 .89-.074 1.27-.223l.165.73c-.44.2-.97.29-1.58.29-.73 0-1.3-.21-1.72-.64s-.62-1-.62-1.73c0-.71.2-1.3.58-1.77.41-.5.96-.75 1.65-.75.68 0 1.2.25 1.54.76.28.4.42.89.42 1.48zm-1-.272c.008-.31-.06-.58-.202-.805-.182-.29-.46-.437-.834-.437-.343 0-.62.142-.835.427-.174.227-.277.498-.31.815h2.182zm6.616 2.852h-1.047v-2.7c0-.832-.316-1.248-.95-1.248-.31 0-.562.114-.757.343-.193.23-.29.5-.29.808v2.796h-1.05v-3.36c0-.41-.012-.86-.037-1.35h.92l.05.74h.02c.12-.23.3-.42.54-.57.28-.17.6-.26.95-.26.44 0 .8.14 1.09.43.36.35.54.87.54 1.56v2.83zm5.84-6.122c0 .19-.062.34-.185.457-.123.117-.28.175-.475.175-.176 0-.322-.06-.44-.18-.122-.12-.18-.27-.18-.45s.06-.33.183-.446.275-.176.457-.176c.18 0 .332.06.455.175s.184.265.184.446zm-.117 6.122h-1.05V8.717h1.05v4.715zm8.614 0H82.95V10.79c0-.87-.3-1.306-.893-1.306-.285 0-.514.108-.684.324-.172.216-.258.47-.258.76v2.863h-1.027v-2.77c0-.35-.074-.64-.22-.85-.145-.21-.36-.32-.644-.32-.285 0-.518.12-.7.35-.18.23-.27.5-.27.79v2.81h-1.03v-3.37c0-.41-.01-.86-.036-1.35h.9l.05.72h.028c.324-.54.803-.81 1.436-.81.64 0 1.074.3 1.3.88h.02c.15-.24.333-.44.554-.59.277-.19.598-.29.96-.29.42 0 .767.14 1.038.43.336.36.504.89.504 1.59v2.8z" fill="#FFF"/>
</svg>
